<?xml version="1.0" encoding="utf-8"?>
<!-- Generator: Adobe Illustrator 18.1.1, SVG Export Plug-In . SVG Version: 6.00 Build 0)  -->
<svg version="1.1" id="Layer_1" xmlns="http://www.w3.org/2000/svg" xmlns:xlink="http://www.w3.org/1999/xlink" x="0px" y="0px"
	 viewBox="0 0 800 800" style="enable-background:new 0 0 800 800;" xml:space="preserve">
<style type="text/css">
	.st0{display:none;fill:#EB843F;}
	.st1{fill:#3F6C7A;}
	.st2{fill:#61DAFB;}
	.st3{fill:#124C59;}
	.st4{display:none;}
	.st5{display:inline;}
	.st6{fill:#B2C4CA;}
</style>
<ellipse class="st0" cx="402" cy="391" rx="371" ry="359"/>
<path class="st1" d="M612.3,531.3H151.1c-5.5,0-10-4.5-10-10v-10.8c0-5.5,4.5-10,10-10h461.2c5.5,0,10,4.5,10,10v10.8
	C622.3,526.8,617.8,531.3,612.3,531.3z"/>
<g>
	<path class="st2" d="M538,361.6c0-19.3-24.2-37.7-61.4-49c8.6-37.9,4.8-68-12-77.6c-3.9-2.3-8.4-3.3-13.3-3.3v13.3
		c2.7,0,4.9,0.5,6.8,1.5c8.1,4.6,11.6,22.3,8.9,45.1c-0.7,5.6-1.7,11.5-3,17.5c-11.7-2.9-24.4-5.1-37.8-6.5c-8-11-16.4-21-24.8-29.8
		c19.4-18,37.6-27.9,50-27.9v-13.3c-16.4,0-37.8,11.7-59.5,31.9c-21.7-20.1-43.1-31.7-59.5-31.7V245c12.3,0,30.6,9.8,50,27.7
		c-8.3,8.7-16.7,18.7-24.6,29.7c-13.5,1.4-26.2,3.6-37.9,6.5c-1.4-6-2.4-11.7-3.1-17.3c-2.8-22.7,0.7-40.4,8.7-45.1
		c1.8-1.1,4.1-1.5,6.8-1.5v-13.3c-5,0-9.5,1.1-13.5,3.3c-16.7,9.6-20.5,39.7-11.8,77.4c-37,11.4-61.1,29.7-61.1,49
		c0,19.3,24.2,37.7,61.4,49c-8.6,37.9-4.8,68,12,77.6c3.9,2.3,8.4,3.3,13.4,3.3c16.4,0,37.8-11.7,59.5-31.9
		c21.7,20.1,43.1,31.7,59.5,31.7c5,0,9.5-1.1,13.5-3.3c16.7-9.6,20.5-39.7,11.8-77.4C513.9,399.2,538,380.8,538,361.6L538,361.6z
		 M460.5,321.9c-2.2,7.7-4.9,15.6-8,23.5c-2.4-4.8-5-9.5-7.8-14.3c-2.7-4.8-5.7-9.4-8.6-13.9C444.6,318.4,452.7,320,460.5,321.9
		L460.5,321.9z M433.3,385.2c-4.6,8-9.4,15.7-14.3,22.7c-8.9,0.8-17.9,1.2-26.9,1.2c-9,0-18-0.4-26.8-1.1
		c-4.9-7.1-9.8-14.6-14.4-22.6c-4.5-7.8-8.6-15.7-12.4-23.7c3.7-8,7.9-16,12.3-23.7c4.6-8,9.4-15.7,14.3-22.7
		c8.9-0.8,17.9-1.2,26.9-1.2c9,0,18,0.4,26.8,1.1c4.9,7.1,9.8,14.6,14.4,22.6c4.5,7.8,8.6,15.7,12.4,23.7
		C441.8,369.5,437.7,377.4,433.3,385.2L433.3,385.2z M452.5,377.5c3.2,8,6,16,8.2,23.7c-7.8,1.9-16,3.5-24.5,4.8
		c2.9-4.6,5.8-9.3,8.6-14.1C447.5,387.1,450,382.3,452.5,377.5L452.5,377.5z M392.1,441c-5.5-5.7-11.1-12.1-16.5-19
		c5.4,0.2,10.8,0.4,16.4,0.4c5.6,0,11.1-0.1,16.5-0.4C403.1,428.9,397.6,435.3,392.1,441z M347.8,406c-8.5-1.2-16.6-2.8-24.4-4.7
		c2.2-7.7,4.9-15.6,8-23.5c2.4,4.8,5,9.5,7.8,14.3C342.1,396.8,344.9,401.4,347.8,406z M391.8,282.1c5.5,5.7,11.1,12.1,16.5,19
		c-5.4-0.2-10.8-0.4-16.4-0.4c-5.6,0-11.1,0.1-16.5,0.4C380.8,294.2,386.4,287.8,391.8,282.1z M347.8,317.2
		c-2.9,4.6-5.8,9.3-8.6,14.1c-2.7,4.8-5.3,9.5-7.7,14.3c-3.2-8-6-16-8.2-23.7C331.1,320,339.3,318.4,347.8,317.2L347.8,317.2z
		 M293.9,391.7c-21.1-9-34.7-20.8-34.7-30.1s13.6-21.2,34.7-30.1c5.1-2.2,10.7-4.2,16.5-6c3.4,11.7,7.9,23.8,13.4,36.2
		c-5.5,12.4-9.9,24.5-13.2,36.1C304.7,395.9,299.1,393.9,293.9,391.7L293.9,391.7z M325.9,476.7c-8.1-4.6-11.6-22.3-8.9-45.1
		c0.7-5.6,1.7-11.5,3-17.5c11.7,2.9,24.4,5.1,37.8,6.5c8,11,16.4,21,24.8,29.8c-19.4,18-37.6,27.9-50,27.9
		C330,478.3,327.7,477.7,325.9,476.7L325.9,476.7z M467.1,431.4c2.8,22.7-0.7,40.4-8.7,45.1c-1.8,1.1-4.1,1.5-6.8,1.5
		c-12.3,0-30.6-9.8-50-27.7c8.3-8.7,16.7-18.7,24.6-29.7c13.5-1.4,26.2-3.6,37.9-6.5C465.4,420.1,466.5,425.8,467.1,431.4z
		 M490,391.7c-5.1,2.2-10.7,4.2-16.5,6c-3.4-11.7-7.9-23.8-13.4-36.2c5.5-12.4,9.9-24.5,13.2-36.1c5.9,1.8,11.5,3.9,16.7,6.1
		c21.1,9,34.7,20.8,34.7,30.1C524.7,370.9,511.1,382.7,490,391.7L490,391.7z"/>
	<circle class="st2" cx="391.9" cy="361.6" r="27.2"/>
	<path class="st2" d="M451.2,231.6"/>
</g>
<g>
	<path class="st3" d="M602.3,497.4l-281.2-359c-1.4-1.8-1-4.3,0.8-5.7C422.3,56.8,566.2,75,644.4,174.8S705.7,418.7,608,498
		C606.3,499.4,603.7,499.1,602.3,497.4z"/>
	<path class="st3" d="M629.6,205.8l-18.8-24.1c-4.1-5.2-3.1-12.8,2-16.8l26.5-20.8c5.2-4.1,12.8-3.1,16.8,2l18.8,24.1
		c4.1,5.2,3.1,12.8-2,16.8l-26.5,20.8C641.3,211.9,633.7,211,629.6,205.8z"/>
	<path class="st1" d="M672.3,333c-3.3,50.5-19.6,82.4-37.3,81.3c-17.7-1.1-4.4-48.9-1.2-99.4c3.3-50.5-4.7-84.7,13-83.6
		C664.6,232.5,675.6,282.5,672.3,333z"/>
</g>
<g class="st4">
	<g class="st5">
		<path d="M0.8,168.9c5.6-3.7,10.2-8.6,15.1-13.2c10.1-9.6,19.8-19.8,30.6-28.8c5.9-4.9,12.8-8.7,17.9-14.6
			c5.7-6.5,11.4-13.1,15.5-20.8c1.5-2.8,1.7-6.1,1.7-9.3c0-9.4,4.5-16.6,11.1-22.6c2-1.8,4.5-3.3,7-4.3c6.2-2.4,11.4-6.4,17-9.8
			c4-2.4,8.6-3.2,12.7-5.3c3.2-1.6,5.9-3.9,9.3-5.2c4.2-1.6,8.2-3.3,12.8-3.9c7.9-1,14.5-5.1,21-9.4c8.2-5.4,16.7-10.3,25.8-14.2
			c4.7-2,9.7-3.4,14.4-5.4c4.4-1.9,10.2-1,13.6,2.3c3.4,3.2,4.2,8.8,2.7,13.5c-2.5,8.2-9.4,12.1-15.6,16.6
			c-9.9,7.1-20.9,12.2-32.2,16.4c-1.5,0.6-2.9,1.2-4,2.9c2.4,1.3,4.9,1.3,7.5,1.2c10.3-0.6,20.4-2.3,30.5-4c6.5-1,13.2-0.8,19.8-1.1
			c6.9-0.3,13.3-3.4,20-4.7c1.7-0.4,3.5-1.1,5.3-1.4c10.4-1.7,20.6-4.4,31-6.2c5.5-0.9,10.9-1.9,16.4-2.4c2.6-0.3,5.1-1.1,7.5-2.3
			c4.6-2.2,9.7-2.3,14.7-2.9c2-0.3,3.9-0.4,5.8-1.1c5.1-1.7,12.8,1.8,14.9,6.7c0.8,2,2.1,2.5,4,2.4c2.9-0.1,5.8,0.1,8.7,0.6
			c4,0.7,6.6,3.3,8.4,6.6c2.5,4.6,0.5,8.9-4.6,10.1c-2.6,0.6-4.9,2-7.6,2c-1.7,0-1.9,1.3-1.8,2.8c0.3,7.7,0,7.8-7.3,10.2
			c-10.2,3.3-19.6,8.3-29.3,12.7c-2,0.9-2.5,2.5-2.2,4.9c0.8,5.7,0,6.8-5.6,8.5c-6.5,2.1-11.8,6.2-16.9,10.5c-2,1.7-4.2,3.1-6.5,3.6
			c-8.6,1.9-16.5,5.4-24.5,8.6c-11,4.4-22.1,8.4-33.4,12c-6.2,2-11.9,5.1-17.5,8.2c-6.1,3.4-12.3,6-19.3,6
			c-8.2,0.1-16.1,2.2-24.1,3.8c-8.8,1.8-17.6,3.4-26.4,4.8c-8.7,1.4-16.6,4.9-24.7,8.1c-5.6,2.2-8.5,7.2-10.2,12.7
			c-2.6,8.4-8.2,13.8-16.4,16.8c-9.1,3.4-15.5,10.1-21.7,17.2c-7.5,8.8-15,17.6-22.7,26.3c-5.8,6.6-10.7,14-16.5,20.5
			c-6.7,7.5-12.1,16.2-19.3,23.3c-4.3,4.3-6.8,10.1-12,13.5C0.8,251.4,0.8,210.1,0.8,168.9z"/>
	</g>
</g>
<g>
	<path class="st6" d="M212.6,647.3L212.6,647.3C212.6,647.4,212.6,647.4,212.6,647.3L212.6,647.3z"/>
	<path class="st6" d="M212.7,639.4c0,0,2-1,3-1.5c6.9-3.5,14.4-5.7,20.7-10.3c7-5.1,14-10.3,19.7-16.9c2.1-2.4,3-5.6,3.7-8.7
		c2.1-9.1,8-15.2,15.8-19.6c2.4-1.3,5.1-2.3,7.8-2.7c6.6-1,12.6-3.8,18.8-5.8c4.5-1.5,9.1-1.2,13.6-2.4c3.5-0.9,6.6-2.5,10.2-3
		c4.4-0.7,8.8-1.4,13.3-1c7.9,0.8,15.2-1.8,22.5-4.6c9.2-3.5,18.6-6.4,28.3-8.2c5.1-1,10.2-1.2,15.2-2.1c4.7-0.9,10.1,1.3,12.8,5.2
		c2.6,3.9,2.1,9.5-0.3,13.8c-4.3,7.4-11.8,9.8-18.9,12.8c-11.2,4.8-23,7.4-35.1,9c-1.6,0.2-3.1,0.6-4.5,1.9c2.1,1.8,4.5,2.4,7.1,2.8
		c10.2,1.7,20.4,2.2,30.7,2.8c6.5,0.4,13,2.1,19.5,3.2c6.9,1.2,13.7-0.4,20.5-0.2c1.8,0,3.6-0.3,5.5-0.2c10.5,0.6,21.1,0.2,31.6,0.7
		c5.5,0.3,11,0.5,16.5,1.2c2.6,0.3,5.2,0,7.8-0.6c5-1.2,10-0.1,15,0.3c2,0.2,3.9,0.4,5.9,0.2c5.3-0.5,12.1,4.5,13,9.8
		c0.4,2.1,1.5,2.9,3.4,3.2c2.9,0.5,5.6,1.4,8.3,2.5c3.8,1.6,5.7,4.7,6.7,8.3c1.4,5.1-1.5,8.8-6.7,8.8c-2.6,0-5.2,0.9-7.9,0.3
		c-1.7-0.4-2.1,0.9-2.4,2.4c-1.4,7.6-1.7,7.7-9.3,8.4c-10.6,1-20.9,3.8-31.3,6c-2.2,0.5-3,1.9-3.2,4.3c-0.5,5.8-1.5,6.6-7.4,7.1
		c-6.8,0.6-12.9,3.5-18.8,6.5c-2.3,1.2-4.7,2.1-7.1,2.1c-8.8,0-17.3,1.7-25.8,3.1c-11.7,1.9-23.4,3.3-35.2,4.4
		c-6.5,0.6-12.7,2.4-18.9,4.2c-6.7,2-13.3,3.1-20.2,1.6c-8.1-1.7-16.2-1.4-24.4-1.5c-8.9-0.1-17.9-0.5-26.8-1.1
		c-8.8-0.6-17.3,1.2-25.9,2.5c-6,0.9-9.9,5.1-12.8,10.2c-4.4,7.7-11,11.4-19.6,12.6c-0.5,0.1-16.5-28.8-21.2-38"/>
</g>
</svg>
